<svg xmlns="http://www.w3.org/2000/svg" width="390" height="844" viewBox="0 0 390 844">
<style>text{font-family:Arial,Helvetica,sans-serif}</style>
<rect width="390" height="844" fill="#F8F9FB"/>
<rect x="0" y="0" width="390" height="88" fill="white"/>
<text x="24" y="56" font-size="22" font-weight="700" fill="#111827">Hello, Santosh</text>
<text x="344" y="56" font-size="22" fill="#111827">☰</text>
<line x1="0" y1="88" x2="390" y2="88" stroke="#E5E7EB"/><text x="24" y="112" font-size="14" fill="#6B7280">Good Morning!</text>
<rect x="24" y="134" width="342" height="132" rx="16" fill="#F5A623"/><text x="44" y="170" font-size="16" font-weight="700" fill="white">Wallet Balance</text><text x="44" y="220" font-size="36" font-weight="700" fill="white">Rs 250.00</text><text x="44" y="248" font-size="13" fill="white">View Wallet &gt;</text>
<text x="24" y="306" font-size="18" font-weight="700" fill="#111827">Today's Menu</text><text x="290" y="306" font-size="13" fill="#F5A623">View Menu &gt;</text>
<rect x="24" y="324" width="100" height="84" rx="16" fill="white" stroke="#E5E7EB"/><text x="74" y="368" font-size="15" text-anchor="middle">Breakfast</text><text x="74" y="392" font-size="11" text-anchor="middle" fill="#6B7280">7:30 AM</text>
<rect x="145" y="324" width="100" height="84" rx="16" fill="white" stroke="#E5E7EB"/><rect x="154" y="334" width="82" height="28" rx="8" fill="#F5A623"/><text x="195" y="354" font-size="14" text-anchor="middle" fill="white">Lunch</text><text x="195" y="392" font-size="11" text-anchor="middle" fill="#6B7280">12:00 PM</text>
<rect x="266" y="324" width="100" height="84" rx="16" fill="white" stroke="#E5E7EB"/><text x="316" y="368" font-size="15" text-anchor="middle">Dinner</text><text x="316" y="392" font-size="11" text-anchor="middle" fill="#6B7280">7:00 PM</text>
<text x="24" y="448" font-size="18" font-weight="700">Active Order</text><rect x="24" y="466" width="342" height="96" rx="16" fill="white" stroke="#E5E7EB"/>
<text x="44" y="498" font-size="15">Order ID</text><text x="125" y="498" font-size="15" font-weight="700">#182</text><text x="44" y="528" font-size="13" fill="#6B7280">Lunch - 12:00 PM to 12:30 PM</text><rect x="280" y="490" width="68" height="28" rx="12" fill="#FFF3D6"/><text x="314" y="509" font-size="12" text-anchor="middle" fill="#F5A623">Preparing</text>
<text x="24" y="606" font-size="18" font-weight="700">Quick Actions</text><rect x="24" y="630" width="74" height="60" rx="12" fill="white" stroke="#E5E7EB"/><text x="61.0" y="666.0" font-size="15" font-weight="700" text-anchor="middle" fill="#F5A623">Menu</text><rect x="110" y="630" width="74" height="60" rx="12" fill="white" stroke="#E5E7EB"/><text x="147.0" y="666.0" font-size="15" font-weight="700" text-anchor="middle" fill="#F5A623">Orders</text><rect x="196" y="630" width="74" height="60" rx="12" fill="white" stroke="#E5E7EB"/><text x="233.0" y="666.0" font-size="15" font-weight="700" text-anchor="middle" fill="#F5A623">Wallet</text><rect x="282" y="630" width="74" height="60" rx="12" fill="white" stroke="#E5E7EB"/><text x="319.0" y="666.0" font-size="15" font-weight="700" text-anchor="middle" fill="#F5A623">Help</text><rect x="0" y="764" width="390" height="80" fill="white"/><line x1="0" y1="764" x2="390" y2="764" stroke="#E5E7EB"/><text x="39" y="794" font-size="22" text-anchor="middle" fill="#F5A623">⌂</text><text x="39" y="820" font-size="11" text-anchor="middle" fill="#F5A623">Home</text><text x="117" y="794" font-size="22" text-anchor="middle" fill="#9CA3AF">☷</text><text x="117" y="820" font-size="11" text-anchor="middle" fill="#9CA3AF">Menu</text><text x="195" y="794" font-size="22" text-anchor="middle" fill="#9CA3AF">▤</text><text x="195" y="820" font-size="11" text-anchor="middle" fill="#9CA3AF">Orders</text><text x="273" y="794" font-size="22" text-anchor="middle" fill="#9CA3AF">▣</text><text x="273" y="820" font-size="11" text-anchor="middle" fill="#9CA3AF">Wallet</text><text x="351" y="794" font-size="22" text-anchor="middle" fill="#9CA3AF">☰</text><text x="351" y="820" font-size="11" text-anchor="middle" fill="#9CA3AF">More</text>
</svg>