<svg xmlns="http://www.w3.org/2000/svg" width="390" height="844" viewBox="0 0 390 844">
<style>text{font-family:Arial,Helvetica,sans-serif}</style>
<rect width="390" height="844" fill="#F8F9FB"/>
<rect x="0" y="0" width="390" height="88" fill="white"/>
<text x="22" y="58" font-size="32" fill="#111827">&lt;</text><text x="54" y="56" font-size="22" font-weight="700" fill="#111827">Menu</text>
<text x="344" y="56" font-size="22" fill="#111827">☰</text>
<line x1="0" y1="88" x2="390" y2="88" stroke="#E5E7EB"/><rect x="24" y="108" width="342" height="46" rx="10" fill="white" stroke="#E5E7EB"/><text x="64" y="138" font-size="14">Today, 22 May 2024</text><text x="334" y="138" font-size="18" text-anchor="middle">&gt;</text>
<rect x="24" y="174" width="94" height="36" rx="8" fill="white" stroke="#E5E7EB"/><text x="71" y="197" font-size="13" text-anchor="middle">Breakfast</text><rect x="148" y="174" width="94" height="36" rx="8" fill="#F5A623"/><text x="195" y="197" font-size="13" text-anchor="middle" fill="white">Lunch</text><rect x="272" y="174" width="94" height="36" rx="8" fill="white" stroke="#E5E7EB"/><text x="319" y="197" font-size="13" text-anchor="middle">Dinner</text>
<text x="24" y="240" font-size="16" font-weight="700">Select Time Slot</text><rect x="24" y="258" width="94" height="52" rx="8" fill="#F5A623"/><text x="71" y="282" font-size="13" text-anchor="middle" fill="white">12:00 PM</text><text x="71" y="300" font-size="10" text-anchor="middle" fill="white">12:00-12:30</text><rect x="148" y="258" width="94" height="52" rx="8" fill="white" stroke="#E5E7EB"/><text x="195" y="282" font-size="13" text-anchor="middle">12:30 PM</text><text x="195" y="300" font-size="10" text-anchor="middle" fill="#6B7280">12:30-1:00</text><rect x="272" y="258" width="94" height="52" rx="8" fill="white" stroke="#E5E7EB"/><text x="319" y="282" font-size="13" text-anchor="middle">1:00 PM</text><text x="319" y="300" font-size="10" text-anchor="middle" fill="#6B7280">1:00-1:30</text><text x="24" y="344" font-size="16" font-weight="700">Recommended</text><rect x="24" y="362" width="342" height="84" rx="14" fill="white" stroke="#E5E7EB"/><rect x="36" y="375" width="58" height="58" rx="12" fill="#FFF3D6" stroke="#E5E7EB"/><circle cx="65.0" cy="404.0" r="19.333333333333332" fill="#D97706"/><circle cx="57.0" cy="399.0" r="6" fill="#FDE68A"/><circle cx="72.0" cy="410.0" r="7" fill="#FBBF24"/><text x="108" y="392" font-size="16" font-weight="700">Veg Thali</text><text x="108" y="415" font-size="13">Rs 80</text><text x="108" y="434" font-size="11" fill="#22C55E">Available</text><rect x="318" y="388" width="30" height="30" rx="8" fill="#F5A623"/><text x="333" y="410" font-size="22" text-anchor="middle" fill="white">+</text><rect x="24" y="458" width="342" height="84" rx="14" fill="white" stroke="#E5E7EB"/><rect x="36" y="471" width="58" height="58" rx="12" fill="#FFF3D6" stroke="#E5E7EB"/><circle cx="65.0" cy="500.0" r="19.333333333333332" fill="#D97706"/><circle cx="57.0" cy="495.0" r="6" fill="#FDE68A"/><circle cx="72.0" cy="506.0" r="7" fill="#FBBF24"/><text x="108" y="488" font-size="16" font-weight="700">Paneer Butter Masala</text><text x="108" y="511" font-size="13">Rs 90</text><text x="108" y="530" font-size="11" fill="#22C55E">Available</text><rect x="318" y="484" width="30" height="30" rx="8" fill="#F5A623"/><text x="333" y="506" font-size="22" text-anchor="middle" fill="white">+</text><rect x="24" y="554" width="342" height="84" rx="14" fill="white" stroke="#E5E7EB"/><rect x="36" y="567" width="58" height="58" rx="12" fill="#FFF3D6" stroke="#E5E7EB"/><circle cx="65.0" cy="596.0" r="19.333333333333332" fill="#D97706"/><circle cx="57.0" cy="591.0" r="6" fill="#FDE68A"/><circle cx="72.0" cy="602.0" r="7" fill="#FBBF24"/><text x="108" y="584" font-size="16" font-weight="700">Jeera Rice</text><text x="108" y="607" font-size="13">Rs 40</text><text x="108" y="626" font-size="11" fill="#22C55E">Available</text><rect x="318" y="580" width="30" height="30" rx="8" fill="#F5A623"/><text x="333" y="602" font-size="22" text-anchor="middle" fill="white">+</text><rect x="24" y="650" width="342" height="84" rx="14" fill="white" stroke="#E5E7EB"/><rect x="36" y="663" width="58" height="58" rx="12" fill="#FFF3D6" stroke="#E5E7EB"/><circle cx="65.0" cy="692.0" r="19.333333333333332" fill="#D97706"/><circle cx="57.0" cy="687.0" r="6" fill="#FDE68A"/><circle cx="72.0" cy="698.0" r="7" fill="#FBBF24"/><text x="108" y="680" font-size="16" font-weight="700">Masala Buttermilk</text><text x="108" y="703" font-size="13">Rs 20</text><text x="108" y="722" font-size="11" fill="#22C55E">Available</text><rect x="318" y="676" width="30" height="30" rx="8" fill="#F5A623"/><text x="333" y="698" font-size="22" text-anchor="middle" fill="white">+</text><rect x="0" y="764" width="390" height="80" fill="white"/><line x1="0" y1="764" x2="390" y2="764" stroke="#E5E7EB"/><text x="39" y="794" font-size="22" text-anchor="middle" fill="#9CA3AF">⌂</text><text x="39" y="820" font-size="11" text-anchor="middle" fill="#9CA3AF">Home</text><text x="117" y="794" font-size="22" text-anchor="middle" fill="#F5A623">☷</text><text x="117" y="820" font-size="11" text-anchor="middle" fill="#F5A623">Menu</text><text x="195" y="794" font-size="22" text-anchor="middle" fill="#9CA3AF">▤</text><text x="195" y="820" font-size="11" text-anchor="middle" fill="#9CA3AF">Orders</text><text x="273" y="794" font-size="22" text-anchor="middle" fill="#9CA3AF">▣</text><text x="273" y="820" font-size="11" text-anchor="middle" fill="#9CA3AF">Wallet</text><text x="351" y="794" font-size="22" text-anchor="middle" fill="#9CA3AF">☰</text><text x="351" y="820" font-size="11" text-anchor="middle" fill="#9CA3AF">More</text>
</svg>