<svg xmlns="http://www.w3.org/2000/svg" width="390" height="844" viewBox="0 0 390 844">
<style>text{font-family:Arial,Helvetica,sans-serif}</style>
<rect width="390" height="844" fill="#F8F9FB"/>
<rect x="0" y="0" width="390" height="88" fill="white"/>
<text x="22" y="58" font-size="32" fill="#111827">&lt;</text><text x="54" y="56" font-size="22" font-weight="700" fill="#111827">Food Details</text>
<text x="344" y="56" font-size="22" fill="#111827">☰</text>
<line x1="0" y1="88" x2="390" y2="88" stroke="#E5E7EB"/><rect x="0" y="88" width="390" height="230" fill="#FFF3D6"/><circle cx="195" cy="200" r="80" fill="#D97706"/><circle cx="165" cy="185" r="28" fill="#FDE68A"/><circle cx="225" cy="210" r="34" fill="#FBBF24"/>
<text x="24" y="360" font-size="26" font-weight="700">Veg Thali</text><text x="326" y="360" font-size="22" font-weight="700">Rs 80</text><text x="24" y="390" font-size="13" fill="#6B7280">Dal, Rice, 2 Sabzi, Roti, Salad, Pickle</text>
<text x="24" y="438" font-size="17" font-weight="700">Meal Details</text><text x="24" y="470" font-size="14" fill="#6B7280">Calories</text><text x="324" y="470" font-size="14">450 kcal</text><text x="24" y="500" font-size="14" fill="#6B7280">Protein</text><text x="340" y="500" font-size="14">12 g</text><text x="24" y="530" font-size="14" fill="#6B7280">Carbohydrates</text><text x="340" y="530" font-size="14">65 g</text>
<text x="24" y="590" font-size="17" font-weight="700">Quantity</text><rect x="260" y="570" width="96" height="40" rx="12" fill="white" stroke="#E5E7EB"/><text x="282" y="596" font-size="20">-</text><text x="308" y="596" font-size="16">1</text><text x="335" y="596" font-size="20">+</text><text x="24" y="728" font-size="24" font-weight="700">Rs 80</text><rect x="160" y="696" width="206" height="56" rx="12" fill="#F5A623" stroke="#E5E7EB"/><text x="263.0" y="730.0" font-size="15" font-weight="700" text-anchor="middle" fill="white">Add to Cart</text>
</svg>