<svg xmlns="http://www.w3.org/2000/svg" width="390" height="844" viewBox="0 0 390 844">
<style>text{font-family:Arial,Helvetica,sans-serif}</style>
<rect width="390" height="844" fill="#F8F9FB"/>
<rect x="0" y="0" width="390" height="88" fill="white"/>
<text x="22" y="58" font-size="32" fill="#111827">&lt;</text><text x="54" y="56" font-size="22" font-weight="700" fill="#111827">My Cart</text>
<text x="344" y="56" font-size="22" fill="#111827">☰</text>
<line x1="0" y1="88" x2="390" y2="88" stroke="#E5E7EB"/><text x="24" y="122" font-size="14" fill="#6B7280">Lunch - 12:00 PM to 12:30 PM</text><rect x="24" y="150" width="62" height="62" rx="12" fill="#FFF3D6" stroke="#E5E7EB"/><circle cx="55.0" cy="181.0" r="20.666666666666668" fill="#D97706"/><circle cx="47.0" cy="176.0" r="6" fill="#FDE68A"/><circle cx="62.0" cy="187.0" r="7" fill="#FBBF24"/><text x="104" y="176" font-size="17" font-weight="700">Veg Thali</text><text x="104" y="202" font-size="15">Rs 80</text><rect x="276" y="166" width="78" height="34" rx="10" fill="white" stroke="#E5E7EB"/><text x="298" y="189">-</text><text x="317" y="189">1</text><text x="338" y="189">+</text><rect x="24" y="235" width="62" height="62" rx="12" fill="#FFF3D6" stroke="#E5E7EB"/><circle cx="55.0" cy="266.0" r="20.666666666666668" fill="#D97706"/><circle cx="47.0" cy="261.0" r="6" fill="#FDE68A"/><circle cx="62.0" cy="272.0" r="7" fill="#FBBF24"/><text x="104" y="261" font-size="17" font-weight="700">Jeera Rice</text><text x="104" y="287" font-size="15">Rs 40</text><rect x="276" y="251" width="78" height="34" rx="10" fill="white" stroke="#E5E7EB"/><text x="298" y="274">-</text><text x="317" y="274">1</text><text x="338" y="274">+</text><rect x="24" y="320" width="62" height="62" rx="12" fill="#FFF3D6" stroke="#E5E7EB"/><circle cx="55.0" cy="351.0" r="20.666666666666668" fill="#D97706"/><circle cx="47.0" cy="346.0" r="6" fill="#FDE68A"/><circle cx="62.0" cy="357.0" r="7" fill="#FBBF24"/><text x="104" y="346" font-size="17" font-weight="700">Masala Buttermilk</text><text x="104" y="372" font-size="15">Rs 20</text><rect x="276" y="336" width="78" height="34" rx="10" fill="white" stroke="#E5E7EB"/><text x="298" y="359">-</text><text x="317" y="359">1</text><text x="338" y="359">+</text><line x1="24" y1="450" x2="366" y2="450" stroke="#E5E7EB"/><text x="24" y="488" font-size="15" fill="#6B7280">Subtotal</text><text x="315" y="488" font-size="15">Rs 140</text><text x="24" y="524" font-size="15" fill="#6B7280">Discount (Subsidy)</text><text x="315" y="524" font-size="15" fill="#22C55E">- Rs 20</text><text x="24" y="572" font-size="19" font-weight="700">Total Payable</text><text x="300" y="572" font-size="22" font-weight="700">Rs 120</text><text x="24" y="626" font-size="15" fill="#6B7280">Wallet Balance</text><text x="300" y="626" font-size="15">Rs 250</text><rect x="24" y="700" width="342" height="56" rx="12" fill="#F5A623" stroke="#E5E7EB"/><text x="195.0" y="734.0" font-size="15" font-weight="700" text-anchor="middle" fill="white">Place Order | Rs 120</text><rect x="0" y="764" width="390" height="80" fill="white"/><line x1="0" y1="764" x2="390" y2="764" stroke="#E5E7EB"/><text x="39" y="794" font-size="22" text-anchor="middle" fill="#9CA3AF">⌂</text><text x="39" y="820" font-size="11" text-anchor="middle" fill="#9CA3AF">Home</text><text x="117" y="794" font-size="22" text-anchor="middle" fill="#F5A623">☷</text><text x="117" y="820" font-size="11" text-anchor="middle" fill="#F5A623">Menu</text><text x="195" y="794" font-size="22" text-anchor="middle" fill="#9CA3AF">▤</text><text x="195" y="820" font-size="11" text-anchor="middle" fill="#9CA3AF">Orders</text><text x="273" y="794" font-size="22" text-anchor="middle" fill="#9CA3AF">▣</text><text x="273" y="820" font-size="11" text-anchor="middle" fill="#9CA3AF">Wallet</text><text x="351" y="794" font-size="22" text-anchor="middle" fill="#9CA3AF">☰</text><text x="351" y="820" font-size="11" text-anchor="middle" fill="#9CA3AF">More</text>
</svg>