<svg xmlns="http://www.w3.org/2000/svg" width="390" height="844" viewBox="0 0 390 844">
<style>text{font-family:Arial,Helvetica,sans-serif}</style>
<rect width="390" height="844" fill="#F8F9FB"/>
<rect x="0" y="0" width="390" height="88" fill="white"/>
<text x="22" y="58" font-size="32" fill="#111827">&lt;</text><text x="54" y="56" font-size="22" font-weight="700" fill="#111827">Order Confirmed</text>
<text x="344" y="56" font-size="22" fill="#111827">☰</text>
<line x1="0" y1="88" x2="390" y2="88" stroke="#E5E7EB"/><circle cx="195" cy="150" r="42" fill="#22C55E"/><text x="195" y="167" font-size="42" text-anchor="middle" fill="white">✓</text><text x="195" y="225" font-size="22" font-weight="700" text-anchor="middle">Order Placed Successfully!</text><text x="195" y="252" font-size="14" text-anchor="middle" fill="#6B7280">Your order has been placed</text><rect x="24" y="285" width="342" height="132" rx="16" fill="white" stroke="#E5E7EB"/><text x="44" y="322" font-size="14" fill="#6B7280">Order ID</text><text x="315" y="322" font-size="14" font-weight="700">#182</text><text x="44" y="352" font-size="14" fill="#6B7280">Meal</text><text x="315" y="352" font-size="14" font-weight="700">Lunch</text><text x="44" y="382" font-size="14" fill="#6B7280">Slot</text><text x="250" y="382" font-size="14" font-weight="700">12:00 - 12:30 PM</text><text x="195" y="455" font-size="14" text-anchor="middle" fill="#6B7280">Scan this QR at pickup counter</text><rect x="115" y="476" width="160" height="160" fill="white" stroke="#E5E7EB"/><rect x="135" y="496" width="36" height="36" fill="#111"/><rect x="219" y="496" width="36" height="36" fill="#111"/><rect x="135" y="580" width="36" height="36" fill="#111"/><rect x="185" y="540" width="20" height="20" fill="#111"/><rect x="215" y="570" width="20" height="20" fill="#111"/><rect x="24" y="690" width="342" height="52" rx="12" fill="#F5A623" stroke="#E5E7EB"/><text x="195.0" y="722.0" font-size="15" font-weight="700" text-anchor="middle" fill="white">View My Orders</text><rect x="0" y="764" width="390" height="80" fill="white"/><line x1="0" y1="764" x2="390" y2="764" stroke="#E5E7EB"/><text x="39" y="794" font-size="22" text-anchor="middle" fill="#9CA3AF">⌂</text><text x="39" y="820" font-size="11" text-anchor="middle" fill="#9CA3AF">Home</text><text x="117" y="794" font-size="22" text-anchor="middle" fill="#9CA3AF">☷</text><text x="117" y="820" font-size="11" text-anchor="middle" fill="#9CA3AF">Menu</text><text x="195" y="794" font-size="22" text-anchor="middle" fill="#F5A623">▤</text><text x="195" y="820" font-size="11" text-anchor="middle" fill="#F5A623">Orders</text><text x="273" y="794" font-size="22" text-anchor="middle" fill="#9CA3AF">▣</text><text x="273" y="820" font-size="11" text-anchor="middle" fill="#9CA3AF">Wallet</text><text x="351" y="794" font-size="22" text-anchor="middle" fill="#9CA3AF">☰</text><text x="351" y="820" font-size="11" text-anchor="middle" fill="#9CA3AF">More</text>
</svg>