<svg xmlns="http://www.w3.org/2000/svg" width="390" height="844" viewBox="0 0 390 844">
<style>text{font-family:Arial,Helvetica,sans-serif}</style>
<rect width="390" height="844" fill="#F8F9FB"/>
<rect x="0" y="0" width="390" height="88" fill="white"/>
<text x="22" y="58" font-size="32" fill="#111827">&lt;</text><text x="54" y="56" font-size="22" font-weight="700" fill="#111827">My Orders</text>
<text x="344" y="56" font-size="22" fill="#111827">☰</text>
<line x1="0" y1="88" x2="390" y2="88" stroke="#E5E7EB"/><rect x="24" y="110" width="160" height="40" rx="10" fill="#F5A623"/><text x="104" y="136" font-size="14" text-anchor="middle" fill="white">Current Orders</text><rect x="206" y="110" width="160" height="40" rx="10" fill="white" stroke="#E5E7EB"/><text x="286" y="136" font-size="14" text-anchor="middle">Order History</text><rect x="24" y="176" width="342" height="188" rx="16" fill="white" stroke="#E5E7EB"/><text x="44" y="214" font-size="20" font-weight="700">#182</text><text x="300" y="214" font-size="12" fill="#F5A623">Preparing</text><text x="44" y="248" font-size="13" fill="#6B7280">22 May 2024 - 10:10 AM</text><text x="44" y="278" font-size="13" fill="#6B7280">12:00 PM - 12:30 PM</text><text x="44" y="308" font-size="13" fill="#6B7280">3 Items - Rs 120</text><circle cx="62" cy="340" r="10" fill="#F5A623"/><line x1="72" y1="340" x2="318" y2="340" stroke="#F5A623"/><circle cx="126" cy="340" r="10" fill="#F5A623"/><circle cx="190" cy="340" r="10" fill="#F5A623"/><circle cx="254" cy="340" r="10" fill="#D1D5DB"/><circle cx="318" cy="340" r="10" fill="#D1D5DB"/><rect x="24" y="396" width="342" height="170" rx="16" fill="white" stroke="#E5E7EB"/><text x="44" y="434" font-size="20" font-weight="700">#181</text><text x="300" y="434" font-size="12" fill="#22C55E">Picked Up</text><text x="44" y="468" font-size="13" fill="#6B7280">22 May 2024 - 08:00 AM</text><text x="44" y="498" font-size="13" fill="#6B7280">Breakfast - 2 Items - Rs 60</text><rect x="0" y="764" width="390" height="80" fill="white"/><line x1="0" y1="764" x2="390" y2="764" stroke="#E5E7EB"/><text x="39" y="794" font-size="22" text-anchor="middle" fill="#9CA3AF">⌂</text><text x="39" y="820" font-size="11" text-anchor="middle" fill="#9CA3AF">Home</text><text x="117" y="794" font-size="22" text-anchor="middle" fill="#9CA3AF">☷</text><text x="117" y="820" font-size="11" text-anchor="middle" fill="#9CA3AF">Menu</text><text x="195" y="794" font-size="22" text-anchor="middle" fill="#F5A623">▤</text><text x="195" y="820" font-size="11" text-anchor="middle" fill="#F5A623">Orders</text><text x="273" y="794" font-size="22" text-anchor="middle" fill="#9CA3AF">▣</text><text x="273" y="820" font-size="11" text-anchor="middle" fill="#9CA3AF">Wallet</text><text x="351" y="794" font-size="22" text-anchor="middle" fill="#9CA3AF">☰</text><text x="351" y="820" font-size="11" text-anchor="middle" fill="#9CA3AF">More</text>
</svg>