<svg xmlns="http://www.w3.org/2000/svg" width="390" height="844" viewBox="0 0 390 844">
<style>text{font-family:Arial,Helvetica,sans-serif}</style>
<rect width="390" height="844" fill="#F8F9FB"/>
<rect x="0" y="0" width="390" height="88" fill="white"/>
<text x="22" y="58" font-size="32" fill="#111827">&lt;</text><text x="54" y="56" font-size="22" font-weight="700" fill="#111827">Wallet</text>
<text x="344" y="56" font-size="22" fill="#111827">☰</text>
<line x1="0" y1="88" x2="390" y2="88" stroke="#E5E7EB"/><rect x="24" y="116" width="342" height="132" rx="16" fill="#F5A623"/><text x="44" y="154" font-size="16" font-weight="700" fill="white">Total Balance</text><text x="44" y="205" font-size="36" font-weight="700" fill="white">Rs 250</text><text x="44" y="232" font-size="13" fill="white">Available Credits</text><text x="24" y="294" font-size="18" font-weight="700">Transactions</text><text x="24" y="326" font-size="13" fill="#6B7280">22 May 2024</text><rect x="24" y="342" width="342" height="70" rx="12" fill="white" stroke="#E5E7EB"/><text x="44" y="372" font-size="15">Lunch Order #182</text><text x="286" y="372" font-size="14" fill="#EF4444">-Rs 120</text><text x="44" y="394" font-size="12" fill="#6B7280">11:45 AM</text><rect x="24" y="426" width="342" height="70" rx="12" fill="white" stroke="#E5E7EB"/><text x="44" y="456" font-size="15">Credit Added by HR</text><text x="286" y="456" font-size="14" fill="#22C55E">+Rs 500</text><text x="44" y="478" font-size="12" fill="#6B7280">10:30 AM</text><rect x="24" y="510" width="342" height="70" rx="12" fill="white" stroke="#E5E7EB"/><text x="44" y="540" font-size="15">Refund - Order #175</text><text x="286" y="540" font-size="14" fill="#22C55E">+Rs 60</text><text x="44" y="562" font-size="12" fill="#6B7280">02:15 PM</text><rect x="0" y="764" width="390" height="80" fill="white"/><line x1="0" y1="764" x2="390" y2="764" stroke="#E5E7EB"/><text x="39" y="794" font-size="22" text-anchor="middle" fill="#9CA3AF">⌂</text><text x="39" y="820" font-size="11" text-anchor="middle" fill="#9CA3AF">Home</text><text x="117" y="794" font-size="22" text-anchor="middle" fill="#9CA3AF">☷</text><text x="117" y="820" font-size="11" text-anchor="middle" fill="#9CA3AF">Menu</text><text x="195" y="794" font-size="22" text-anchor="middle" fill="#9CA3AF">▤</text><text x="195" y="820" font-size="11" text-anchor="middle" fill="#9CA3AF">Orders</text><text x="273" y="794" font-size="22" text-anchor="middle" fill="#F5A623">▣</text><text x="273" y="820" font-size="11" text-anchor="middle" fill="#F5A623">Wallet</text><text x="351" y="794" font-size="22" text-anchor="middle" fill="#9CA3AF">☰</text><text x="351" y="820" font-size="11" text-anchor="middle" fill="#9CA3AF">More</text>
</svg>