<svg xmlns="http://www.w3.org/2000/svg" width="390" height="844" viewBox="0 0 390 844">
<style>text{font-family:Arial,Helvetica,sans-serif}</style>
<rect width="390" height="844" fill="#F8F9FB"/>
<rect x="0" y="0" width="390" height="88" fill="white"/>
<text x="22" y="58" font-size="32" fill="#111827">&lt;</text><text x="54" y="56" font-size="22" font-weight="700" fill="#111827">Profile</text>
<text x="344" y="56" font-size="22" fill="#111827">☰</text>
<line x1="0" y1="88" x2="390" y2="88" stroke="#E5E7EB"/><circle cx="195" cy="150" r="44" fill="#E5E7EB"/><text x="195" y="166" font-size="42" text-anchor="middle">👤</text><text x="195" y="220" font-size="20" font-weight="700" text-anchor="middle">Santosh Kumar</text><text x="195" y="245" font-size="13" text-anchor="middle" fill="#6B7280">EMP12345</text><rect x="24" y="300" width="342" height="52" rx="12" fill="white" stroke="#E5E7EB"/><text x="50" y="333" font-size="15">Personal Details</text><text x="340" y="333" font-size="20">&gt;</text><rect x="24" y="368" width="342" height="52" rx="12" fill="white" stroke="#E5E7EB"/><text x="50" y="401" font-size="15">Change Password</text><text x="340" y="401" font-size="20">&gt;</text><rect x="24" y="436" width="342" height="52" rx="12" fill="white" stroke="#E5E7EB"/><text x="50" y="469" font-size="15">Notification Settings</text><text x="340" y="469" font-size="20">&gt;</text><rect x="24" y="504" width="342" height="52" rx="12" fill="white" stroke="#E5E7EB"/><text x="50" y="537" font-size="15">Help & Support</text><text x="340" y="537" font-size="20">&gt;</text><rect x="24" y="572" width="342" height="52" rx="12" fill="white" stroke="#E5E7EB"/><text x="50" y="605" font-size="15" fill="#EF4444">Logout</text><rect x="0" y="764" width="390" height="80" fill="white"/><line x1="0" y1="764" x2="390" y2="764" stroke="#E5E7EB"/><text x="39" y="794" font-size="22" text-anchor="middle" fill="#9CA3AF">⌂</text><text x="39" y="820" font-size="11" text-anchor="middle" fill="#9CA3AF">Home</text><text x="117" y="794" font-size="22" text-anchor="middle" fill="#9CA3AF">☷</text><text x="117" y="820" font-size="11" text-anchor="middle" fill="#9CA3AF">Menu</text><text x="195" y="794" font-size="22" text-anchor="middle" fill="#9CA3AF">▤</text><text x="195" y="820" font-size="11" text-anchor="middle" fill="#9CA3AF">Orders</text><text x="273" y="794" font-size="22" text-anchor="middle" fill="#9CA3AF">▣</text><text x="273" y="820" font-size="11" text-anchor="middle" fill="#9CA3AF">Wallet</text><text x="351" y="794" font-size="22" text-anchor="middle" fill="#F5A623">☰</text><text x="351" y="820" font-size="11" text-anchor="middle" fill="#F5A623">More</text>
</svg>