<svg xmlns="http://www.w3.org/2000/svg" width="1440" height="900" viewBox="0 0 1440 900">
<style>text{font-family:Arial,Helvetica,sans-serif}</style>
<rect width="1440" height="900" fill="#F8F9FB"/>
<rect x="0" y="0" width="250" height="900" fill="#111827"/>
<rect x="32" y="34" width="42" height="34" rx="6" fill="#F5A623"/><text x="88" y="58" font-size="20" font-weight="700" fill="#F5A623">CANTEEN HUB</text>
<text x="88" y="82" font-size="13" fill="white">HR PORTAL</text>
<rect x="20" y="125" width="210" height="42" rx="8" fill="transparent"/><text x="48" y="150" font-size="15" fill="white">Dashboard</text><rect x="20" y="179" width="210" height="42" rx="8" fill="#2A3342"/><text x="48" y="204" font-size="15" fill="#F5A623">Staff Management</text><rect x="20" y="233" width="210" height="42" rx="8" fill="transparent"/><text x="48" y="258" font-size="15" fill="white">Credit Allocation</text><rect x="20" y="287" width="210" height="42" rx="8" fill="transparent"/><text x="48" y="312" font-size="15" fill="white">Policies</text><rect x="20" y="341" width="210" height="42" rx="8" fill="transparent"/><text x="48" y="366" font-size="15" fill="white">Approvals</text><rect x="20" y="395" width="210" height="42" rx="8" fill="transparent"/><text x="48" y="420" font-size="15" fill="white">Reports</text><rect x="20" y="449" width="210" height="42" rx="8" fill="transparent"/><text x="48" y="474" font-size="15" fill="white">Audit Logs</text><rect x="20" y="503" width="210" height="42" rx="8" fill="transparent"/><text x="48" y="528" font-size="15" fill="white">Settings</text><rect x="20" y="557" width="210" height="42" rx="8" fill="transparent"/><text x="48" y="582" font-size="15" fill="white">Logout</text>
<rect x="250" y="0" width="1190" height="76" fill="white"/>
<text x="290" y="48" font-size="24" font-weight="700" fill="#111827">Staff Management</text>
<text x="1260" y="48" font-size="14" fill="#111827">🔔   HR Admin ▾</text>
<line x1="250" y1="76" x2="1440" y2="76" stroke="#E5E7EB"/><text x="290" y="112" font-size="15" fill="#6B7280">Manage and view staff details</text>
<rect x="1180" y="104" width="90" height="38" rx="8" fill="white" stroke="#E5E7EB"/><text x="1225.0" y="129.0" font-size="14" font-weight="700" text-anchor="middle" fill="#111827">Import</text><rect x="1285" y="104" width="100" height="38" rx="8" fill="#F5A623" stroke="#E5E7EB"/><text x="1335.0" y="129.0" font-size="14" font-weight="700" text-anchor="middle" fill="white">+ Add Staff</text>
<rect x="290" y="160" width="1070" height="60" rx="10" fill="white" stroke="#E5E7EB"/><text x="320" y="197" font-size="14" fill="#6B7280">Search by name, emp id, department...</text><text x="930" y="197" font-size="14">All Departments ▾</text><text x="1130" y="197" font-size="14">Active ▾</text>
<rect x="290" y="250" width="1070" height="520" rx="16" fill="white" stroke="#E5E7EB"/>
<text x="310" y="290" font-size="14" font-weight="700">Emp ID</text><text x="480" y="290" font-size="14" font-weight="700">Name</text><text x="700" y="290" font-size="14" font-weight="700">Department</text><text x="900" y="290" font-size="14" font-weight="700">Status</text><text x="1080" y="290" font-size="14" font-weight="700">Actions</text>
<text x="310" y="335" font-size="14" fill="#111827">EMP1001</text><text x="480" y="335" font-size="14" fill="#111827">Santosh Kumar</text><text x="700" y="335" font-size="14" fill="#111827">IT Department</text><text x="900" y="335" font-size="14" fill="#111827">Active</text><text x="1080" y="335" font-size="14" fill="#111827">Edit</text><line x1="290" y1="357" x2="1360" y2="357" stroke="#E5E7EB"/><text x="310" y="393" font-size="14" fill="#111827">EMP1002</text><text x="480" y="393" font-size="14" fill="#111827">Priya Sharma</text><text x="700" y="393" font-size="14" fill="#111827">HR Department</text><text x="900" y="393" font-size="14" fill="#111827">Active</text><text x="1080" y="393" font-size="14" fill="#111827">Edit</text><line x1="290" y1="415" x2="1360" y2="415" stroke="#E5E7EB"/><text x="310" y="451" font-size="14" fill="#111827">EMP1003</text><text x="480" y="451" font-size="14" fill="#111827">Rohan Verma</text><text x="700" y="451" font-size="14" fill="#111827">Operations</text><text x="900" y="451" font-size="14" fill="#111827">Active</text><text x="1080" y="451" font-size="14" fill="#111827">Edit</text><line x1="290" y1="473" x2="1360" y2="473" stroke="#E5E7EB"/><text x="310" y="509" font-size="14" fill="#111827">EMP1004</text><text x="480" y="509" font-size="14" fill="#111827">Neha Singh</text><text x="700" y="509" font-size="14" fill="#111827">Finance</text><text x="900" y="509" font-size="14" fill="#111827">Inactive</text><text x="1080" y="509" font-size="14" fill="#111827">Edit</text><line x1="290" y1="531" x2="1360" y2="531" stroke="#E5E7EB"/><text x="310" y="567" font-size="14" fill="#111827">EMP1005</text><text x="480" y="567" font-size="14" fill="#111827">Amit Patel</text><text x="700" y="567" font-size="14" fill="#111827">Sales</text><text x="900" y="567" font-size="14" fill="#111827">Active</text><text x="1080" y="567" font-size="14" fill="#111827">Edit</text><line x1="290" y1="589" x2="1360" y2="589" stroke="#E5E7EB"/>
</svg>