<svg xmlns="http://www.w3.org/2000/svg" width="1440" height="900" viewBox="0 0 1440 900">
<style>text{font-family:Arial,Helvetica,sans-serif}</style>
<rect width="1440" height="900" fill="#F8F9FB"/>
<rect x="0" y="0" width="250" height="900" fill="#111827"/>
<rect x="32" y="34" width="42" height="34" rx="6" fill="#F5A623"/><text x="88" y="58" font-size="20" font-weight="700" fill="#F5A623">CANTEEN HUB</text>
<text x="88" y="82" font-size="13" fill="white">HR PORTAL</text>
<rect x="20" y="125" width="210" height="42" rx="8" fill="transparent"/><text x="48" y="150" font-size="15" fill="white">Dashboard</text><rect x="20" y="179" width="210" height="42" rx="8" fill="transparent"/><text x="48" y="204" font-size="15" fill="white">Staff Management</text><rect x="20" y="233" width="210" height="42" rx="8" fill="#2A3342"/><text x="48" y="258" font-size="15" fill="#F5A623">Credit Allocation</text><rect x="20" y="287" width="210" height="42" rx="8" fill="transparent"/><text x="48" y="312" font-size="15" fill="white">Policies</text><rect x="20" y="341" width="210" height="42" rx="8" fill="transparent"/><text x="48" y="366" font-size="15" fill="white">Approvals</text><rect x="20" y="395" width="210" height="42" rx="8" fill="transparent"/><text x="48" y="420" font-size="15" fill="white">Reports</text><rect x="20" y="449" width="210" height="42" rx="8" fill="transparent"/><text x="48" y="474" font-size="15" fill="white">Audit Logs</text><rect x="20" y="503" width="210" height="42" rx="8" fill="transparent"/><text x="48" y="528" font-size="15" fill="white">Settings</text><rect x="20" y="557" width="210" height="42" rx="8" fill="transparent"/><text x="48" y="582" font-size="15" fill="white">Logout</text>
<rect x="250" y="0" width="1190" height="76" fill="white"/>
<text x="290" y="48" font-size="24" font-weight="700" fill="#111827">Credit Allocation</text>
<text x="1260" y="48" font-size="14" fill="#111827">🔔   HR Admin ▾</text>
<line x1="250" y1="76" x2="1440" y2="76" stroke="#E5E7EB"/><text x="290" y="112" font-size="15" fill="#6B7280">Allocate credits to staff or departments</text>
<rect x="290" y="150" width="690" height="610" rx="16" fill="white" stroke="#E5E7EB"/>
<text x="330" y="198" font-size="16" font-weight="700" fill="#F5A623">Individual</text><text x="460" y="198" font-size="16">Department</text><text x="600" y="198" font-size="16">Bulk Upload</text><line x1="330" y1="215" x2="395" y2="215" stroke="#F5A623" stroke-width="3"/>
<text x="330" y="270" font-size="14">Select Staff</text><rect x="330" y="288" width="580" height="48" rx="8" fill="white" stroke="#E5E7EB"/><text x="350" y="318" font-size="14" fill="#6B7280">EMP1001 - Santosh Kumar</text>
<text x="330" y="370" font-size="14">Credit Amount (Rs)</text><rect x="330" y="388" width="580" height="48" rx="8" fill="white" stroke="#E5E7EB"/><text x="350" y="418" font-size="14" fill="#6B7280">5000</text>
<text x="330" y="470" font-size="14">Expiry Date</text><rect x="330" y="488" width="580" height="48" rx="8" fill="white" stroke="#E5E7EB"/><text x="350" y="518" font-size="14" fill="#6B7280">31/05/2024</text>
<text x="330" y="570" font-size="14">Reason</text><rect x="330" y="588" width="580" height="70" rx="8" fill="white" stroke="#E5E7EB"/><text x="350" y="628" font-size="14" fill="#6B7280">Monthly credit allocation</text>
<rect x="330" y="690" width="580" height="52" rx="8" fill="#F5A623" stroke="#E5E7EB"/><text x="620.0" y="722.0" font-size="14" font-weight="700" text-anchor="middle" fill="white">Allocate Credit</text>
<rect x="1010" y="150" width="350" height="610" rx="16" fill="white" stroke="#E5E7EB"/>
<text x="1040" y="200" font-size="20" font-weight="700">Recent Allocations</text>
<text x="1040" y="260" font-size="14">EMP1002</text><text x="1240" y="260" font-size="14">Rs 3000</text>
<text x="1040" y="320" font-size="14">EMP1003</text><text x="1240" y="320" font-size="14">Rs 5000</text>
<text x="1040" y="380" font-size="14">EMP1005</text><text x="1240" y="380" font-size="14">Rs 2000</text>

</svg>