<svg xmlns="http://www.w3.org/2000/svg" width="1440" height="900" viewBox="0 0 1440 900">
<style>text{font-family:Arial,Helvetica,sans-serif}</style>
<rect width="1440" height="900" fill="#F8F9FB"/>
<rect x="0" y="0" width="250" height="900" fill="#111827"/>
<rect x="32" y="34" width="42" height="34" rx="6" fill="#F5A623"/><text x="88" y="58" font-size="20" font-weight="700" fill="#F5A623">CANTEEN HUB</text>
<text x="88" y="82" font-size="13" fill="white">HR PORTAL</text>
<rect x="20" y="125" width="210" height="42" rx="8" fill="transparent"/><text x="48" y="150" font-size="15" fill="white">Dashboard</text><rect x="20" y="179" width="210" height="42" rx="8" fill="transparent"/><text x="48" y="204" font-size="15" fill="white">Staff Management</text><rect x="20" y="233" width="210" height="42" rx="8" fill="#2A3342"/><text x="48" y="258" font-size="15" fill="#F5A623">Credit Allocation</text><rect x="20" y="287" width="210" height="42" rx="8" fill="transparent"/><text x="48" y="312" font-size="15" fill="white">Policies</text><rect x="20" y="341" width="210" height="42" rx="8" fill="transparent"/><text x="48" y="366" font-size="15" fill="white">Approvals</text><rect x="20" y="395" width="210" height="42" rx="8" fill="transparent"/><text x="48" y="420" font-size="15" fill="white">Reports</text><rect x="20" y="449" width="210" height="42" rx="8" fill="transparent"/><text x="48" y="474" font-size="15" fill="white">Audit Logs</text><rect x="20" y="503" width="210" height="42" rx="8" fill="transparent"/><text x="48" y="528" font-size="15" fill="white">Settings</text><rect x="20" y="557" width="210" height="42" rx="8" fill="transparent"/><text x="48" y="582" font-size="15" fill="white">Logout</text>
<rect x="250" y="0" width="1190" height="76" fill="white"/>
<text x="290" y="48" font-size="24" font-weight="700" fill="#111827">Bulk Upload</text>
<text x="1260" y="48" font-size="14" fill="#111827">🔔   HR Admin ▾</text>
<line x1="250" y1="76" x2="1440" y2="76" stroke="#E5E7EB"/><text x="290" y="112" font-size="15" fill="#6B7280">Upload credits for multiple staff</text>
<rect x="290" y="150" width="1070" height="280" rx="16" fill="white" stroke="#E5E7EB"/>
<rect x="370" y="210" width="910" height="160" rx="12" fill="white" stroke="#E5E7EB" stroke-dasharray="8 6"/>
<text x="825" y="270" font-size="44" text-anchor="middle" fill="#6B7280">☁</text>
<text x="825" y="320" font-size="18" text-anchor="middle">Click to upload or drag and drop</text>
<text x="825" y="350" font-size="14" text-anchor="middle" fill="#6B7280">Excel file only (.xlsx, .xls)</text>
<text x="825" y="388" font-size="14" text-anchor="middle" fill="#F5A623">Download Sample Template</text>
<rect x="290" y="470" width="1070" height="300" rx="16" fill="white" stroke="#E5E7EB"/>
<text x="320" y="520" font-size="20" font-weight="700">Upload History</text>
<text x="320" y="575" font-size="14" font-weight="700">File Name</text><text x="600" y="575" font-size="14" font-weight="700">Records</text><text x="760" y="575" font-size="14" font-weight="700">Success</text><text x="920" y="575" font-size="14" font-weight="700">Failed</text><text x="1080" y="575" font-size="14" font-weight="700">Status</text>
<text x="320" y="625" font-size="14">credits_may.xlsx</text><text x="600" y="625" font-size="14">120</text><text x="760" y="625" font-size="14">118</text><text x="920" y="625" font-size="14">2</text><text x="1080" y="625" font-size="14" fill="#22C55E">Completed</text><text x="320" y="675" font-size="14">credits_apr.xlsx</text><text x="600" y="675" font-size="14">120</text><text x="760" y="675" font-size="14">118</text><text x="920" y="675" font-size="14">2</text><text x="1080" y="675" font-size="14" fill="#22C55E">Completed</text><text x="320" y="725" font-size="14">credits_mar.xlsx</text><text x="600" y="725" font-size="14">120</text><text x="760" y="725" font-size="14">118</text><text x="920" y="725" font-size="14">2</text><text x="1080" y="725" font-size="14" fill="#22C55E">Completed</text>
</svg>