<svg xmlns="http://www.w3.org/2000/svg" width="1440" height="900" viewBox="0 0 1440 900">
<style>text{font-family:Arial,Helvetica,sans-serif}</style>
<rect width="1440" height="900" fill="#F8F9FB"/>
<rect x="0" y="0" width="250" height="900" fill="#111827"/>
<rect x="32" y="34" width="42" height="34" rx="6" fill="#F5A623"/><text x="88" y="58" font-size="20" font-weight="700" fill="#F5A623">CANTEEN HUB</text>
<text x="88" y="82" font-size="13" fill="white">HR PORTAL</text>
<rect x="20" y="125" width="210" height="42" rx="8" fill="transparent"/><text x="48" y="150" font-size="15" fill="white">Dashboard</text><rect x="20" y="179" width="210" height="42" rx="8" fill="transparent"/><text x="48" y="204" font-size="15" fill="white">Staff Management</text><rect x="20" y="233" width="210" height="42" rx="8" fill="transparent"/><text x="48" y="258" font-size="15" fill="white">Credit Allocation</text><rect x="20" y="287" width="210" height="42" rx="8" fill="transparent"/><text x="48" y="312" font-size="15" fill="white">Policies</text><rect x="20" y="341" width="210" height="42" rx="8" fill="#2A3342"/><text x="48" y="366" font-size="15" fill="#F5A623">Approvals</text><rect x="20" y="395" width="210" height="42" rx="8" fill="transparent"/><text x="48" y="420" font-size="15" fill="white">Reports</text><rect x="20" y="449" width="210" height="42" rx="8" fill="transparent"/><text x="48" y="474" font-size="15" fill="white">Audit Logs</text><rect x="20" y="503" width="210" height="42" rx="8" fill="transparent"/><text x="48" y="528" font-size="15" fill="white">Settings</text><rect x="20" y="557" width="210" height="42" rx="8" fill="transparent"/><text x="48" y="582" font-size="15" fill="white">Logout</text>
<rect x="250" y="0" width="1190" height="76" fill="white"/>
<text x="290" y="48" font-size="24" font-weight="700" fill="#111827">Approval Requests</text>
<text x="1260" y="48" font-size="14" fill="#111827">🔔   HR Admin ▾</text>
<line x1="250" y1="76" x2="1440" y2="76" stroke="#E5E7EB"/><text x="290" y="112" font-size="15" fill="#6B7280">Review and approve requests</text>
<rect x="290" y="150" width="1070" height="600" rx="16" fill="white" stroke="#E5E7EB"/>
<text x="330" y="200" font-size="16" font-weight="700" fill="#F5A623">Credit Requests</text><text x="480" y="200" font-size="16">Refund Requests</text><text x="640" y="200" font-size="16">Other Requests</text>
<text x="330" y="270" font-size="14" font-weight="700">Request ID</text><text x="500" y="270" font-size="14" font-weight="700">Emp ID</text><text x="660" y="270" font-size="14" font-weight="700">Name</text><text x="850" y="270" font-size="14" font-weight="700">Amount</text><text x="1020" y="270" font-size="14" font-weight="700">Date</text><text x="1180" y="270" font-size="14" font-weight="700">Actions</text>
<text x="330" y="330" font-size="14">CR1248</text><text x="500" y="330" font-size="14">EMP1003</text><text x="660" y="330" font-size="14">Rohan Verma</text><text x="850" y="330" font-size="14">Rs 2000</text><text x="1020" y="330" font-size="14">22 May 2024</text><rect x="1180" y="308" width="34" height="34" rx="6" fill="#DCFCE7"/><text x="1197" y="332" font-size="18" text-anchor="middle" fill="#22C55E">✓</text><rect x="1230" y="308" width="34" height="34" rx="6" fill="#FEE2E2"/><text x="1247" y="332" font-size="18" text-anchor="middle" fill="#EF4444">×</text><line x1="330" y1="354" x2="1280" y2="354" stroke="#E5E7EB"/><text x="330" y="400" font-size="14">CR1247</text><text x="500" y="400" font-size="14">EMP1006</text><text x="660" y="400" font-size="14">Anjali Mehta</text><text x="850" y="400" font-size="14">Rs 1500</text><text x="1020" y="400" font-size="14">22 May 2024</text><rect x="1180" y="378" width="34" height="34" rx="6" fill="#DCFCE7"/><text x="1197" y="402" font-size="18" text-anchor="middle" fill="#22C55E">✓</text><rect x="1230" y="378" width="34" height="34" rx="6" fill="#FEE2E2"/><text x="1247" y="402" font-size="18" text-anchor="middle" fill="#EF4444">×</text><line x1="330" y1="424" x2="1280" y2="424" stroke="#E5E7EB"/><text x="330" y="470" font-size="14">CR1246</text><text x="500" y="470" font-size="14">EMP1010</text><text x="660" y="470" font-size="14">Vikram Singh</text><text x="850" y="470" font-size="14">Rs 3000</text><text x="1020" y="470" font-size="14">21 May 2024</text><rect x="1180" y="448" width="34" height="34" rx="6" fill="#DCFCE7"/><text x="1197" y="472" font-size="18" text-anchor="middle" fill="#22C55E">✓</text><rect x="1230" y="448" width="34" height="34" rx="6" fill="#FEE2E2"/><text x="1247" y="472" font-size="18" text-anchor="middle" fill="#EF4444">×</text><line x1="330" y1="494" x2="1280" y2="494" stroke="#E5E7EB"/><text x="330" y="540" font-size="14">CR1245</text><text x="500" y="540" font-size="14">EMP1008</text><text x="660" y="540" font-size="14">Karan Gupta</text><text x="850" y="540" font-size="14">Rs 2500</text><text x="1020" y="540" font-size="14">20 May 2024</text><rect x="1180" y="518" width="34" height="34" rx="6" fill="#DCFCE7"/><text x="1197" y="542" font-size="18" text-anchor="middle" fill="#22C55E">✓</text><rect x="1230" y="518" width="34" height="34" rx="6" fill="#FEE2E2"/><text x="1247" y="542" font-size="18" text-anchor="middle" fill="#EF4444">×</text><line x1="330" y1="564" x2="1280" y2="564" stroke="#E5E7EB"/>
</svg>