<svg xmlns="http://www.w3.org/2000/svg" width="1440" height="900" viewBox="0 0 1440 900">
<style>text{font-family:Arial,Helvetica,sans-serif}</style>
<rect width="1440" height="900" fill="#F8F9FB"/>
<rect x="0" y="0" width="250" height="900" fill="#111827"/>
<rect x="32" y="34" width="42" height="34" rx="6" fill="#F5A623"/><text x="88" y="58" font-size="20" font-weight="700" fill="#F5A623">CANTEEN HUB</text>
<text x="88" y="82" font-size="13" fill="white">HR PORTAL</text>
<rect x="20" y="125" width="210" height="42" rx="8" fill="transparent"/><text x="48" y="150" font-size="15" fill="white">Dashboard</text><rect x="20" y="179" width="210" height="42" rx="8" fill="transparent"/><text x="48" y="204" font-size="15" fill="white">Staff Management</text><rect x="20" y="233" width="210" height="42" rx="8" fill="transparent"/><text x="48" y="258" font-size="15" fill="white">Credit Allocation</text><rect x="20" y="287" width="210" height="42" rx="8" fill="transparent"/><text x="48" y="312" font-size="15" fill="white">Policies</text><rect x="20" y="341" width="210" height="42" rx="8" fill="transparent"/><text x="48" y="366" font-size="15" fill="white">Approvals</text><rect x="20" y="395" width="210" height="42" rx="8" fill="#2A3342"/><text x="48" y="420" font-size="15" fill="#F5A623">Reports</text><rect x="20" y="449" width="210" height="42" rx="8" fill="transparent"/><text x="48" y="474" font-size="15" fill="white">Audit Logs</text><rect x="20" y="503" width="210" height="42" rx="8" fill="transparent"/><text x="48" y="528" font-size="15" fill="white">Settings</text><rect x="20" y="557" width="210" height="42" rx="8" fill="transparent"/><text x="48" y="582" font-size="15" fill="white">Logout</text>
<rect x="250" y="0" width="1190" height="76" fill="white"/>
<text x="290" y="48" font-size="24" font-weight="700" fill="#111827">Reports</text>
<text x="1260" y="48" font-size="14" fill="#111827">🔔   HR Admin ▾</text>
<line x1="250" y1="76" x2="1440" y2="76" stroke="#E5E7EB"/><text x="290" y="112" font-size="15" fill="#6B7280">View and analyze canteen data</text>
<rect x="290" y="150" width="1070" height="600" rx="16" fill="white" stroke="#E5E7EB"/>
<rect x="340" y="220" width="430" height="120" rx="14" fill="white" stroke="#E5E7EB"/><text x="370" y="265" font-size="20" font-weight="700">Credit Usage Report</text><text x="370" y="298" font-size="14" fill="#6B7280">View credit consumption</text><text x="710" y="282" font-size="30" fill="#F5A623">›</text><rect x="840" y="220" width="430" height="120" rx="14" fill="white" stroke="#E5E7EB"/><text x="870" y="265" font-size="20" font-weight="700">Subsidy Report</text><text x="870" y="298" font-size="14" fill="#6B7280">View subsidy details</text><text x="1210" y="282" font-size="30" fill="#F5A623">›</text><rect x="340" y="380" width="430" height="120" rx="14" fill="white" stroke="#E5E7EB"/><text x="370" y="425" font-size="20" font-weight="700">Department Report</text><text x="370" y="458" font-size="14" fill="#6B7280">Department-wise usage</text><text x="710" y="442" font-size="30" fill="#F5A623">›</text><rect x="840" y="380" width="430" height="120" rx="14" fill="white" stroke="#E5E7EB"/><text x="870" y="425" font-size="20" font-weight="700">No-show Report</text><text x="870" y="458" font-size="14" fill="#6B7280">Orders not picked up</text><text x="1210" y="442" font-size="30" fill="#F5A623">›</text><rect x="340" y="540" width="430" height="120" rx="14" fill="white" stroke="#E5E7EB"/><text x="370" y="585" font-size="20" font-weight="700">Top Users Report</text><text x="370" y="618" font-size="14" fill="#6B7280">Highest canteen usage</text><text x="710" y="602" font-size="30" fill="#F5A623">›</text><rect x="840" y="540" width="430" height="120" rx="14" fill="white" stroke="#E5E7EB"/><text x="870" y="585" font-size="20" font-weight="700">Daily Summary Report</text><text x="870" y="618" font-size="14" fill="#6B7280">Daily transaction summary</text><text x="1210" y="602" font-size="30" fill="#F5A623">›</text>
</svg>