<svg xmlns="http://www.w3.org/2000/svg" width="1440" height="900" viewBox="0 0 1440 900">
<style>text{font-family:Arial,Helvetica,sans-serif}</style>
<rect width="1440" height="900" fill="#F8F9FB"/>
<rect x="0" y="0" width="250" height="900" fill="#111827"/>
<rect x="32" y="34" width="42" height="34" rx="6" fill="#F5A623"/><text x="88" y="58" font-size="20" font-weight="700" fill="#F5A623">CANTEEN HUB</text>
<text x="88" y="82" font-size="13" fill="white">HR PORTAL</text>
<rect x="20" y="125" width="210" height="42" rx="8" fill="transparent"/><text x="48" y="150" font-size="15" fill="white">Dashboard</text><rect x="20" y="179" width="210" height="42" rx="8" fill="transparent"/><text x="48" y="204" font-size="15" fill="white">Staff Management</text><rect x="20" y="233" width="210" height="42" rx="8" fill="transparent"/><text x="48" y="258" font-size="15" fill="white">Credit Allocation</text><rect x="20" y="287" width="210" height="42" rx="8" fill="transparent"/><text x="48" y="312" font-size="15" fill="white">Policies</text><rect x="20" y="341" width="210" height="42" rx="8" fill="transparent"/><text x="48" y="366" font-size="15" fill="white">Approvals</text><rect x="20" y="395" width="210" height="42" rx="8" fill="#2A3342"/><text x="48" y="420" font-size="15" fill="#F5A623">Reports</text><rect x="20" y="449" width="210" height="42" rx="8" fill="transparent"/><text x="48" y="474" font-size="15" fill="white">Audit Logs</text><rect x="20" y="503" width="210" height="42" rx="8" fill="transparent"/><text x="48" y="528" font-size="15" fill="white">Settings</text><rect x="20" y="557" width="210" height="42" rx="8" fill="transparent"/><text x="48" y="582" font-size="15" fill="white">Logout</text>
<rect x="250" y="0" width="1190" height="76" fill="white"/>
<text x="290" y="48" font-size="24" font-weight="700" fill="#111827">No-show Report</text>
<text x="1260" y="48" font-size="14" fill="#111827">🔔   HR Admin ▾</text>
<line x1="250" y1="76" x2="1440" y2="76" stroke="#E5E7EB"/><text x="290" y="112" font-size="15" fill="#6B7280">Orders not picked up by staff</text><rect x="1230" y="104" width="120" height="40" rx="8" fill="#F5A623" stroke="#E5E7EB"/><text x="1290.0" y="130.0" font-size="14" font-weight="700" text-anchor="middle" fill="white">Download</text>
<rect x="290" y="150" width="1070" height="600" rx="16" fill="white" stroke="#E5E7EB"/>
<text x="330" y="210" font-size="14">Date Range</text><rect x="330" y="226" width="260" height="42" rx="8" fill="white" stroke="#E5E7EB"/><text x="350" y="253" font-size="13">01 May - 22 May 2024</text>
<text x="330" y="330" font-size="14" font-weight="700">Order ID</text><text x="500" y="330" font-size="14" font-weight="700">Emp ID</text><text x="650" y="330" font-size="14" font-weight="700">Name</text><text x="860" y="330" font-size="14" font-weight="700">Meal</text><text x="1010" y="330" font-size="14" font-weight="700">Date</text><text x="1160" y="330" font-size="14" font-weight="700">Amount</text>
<text x="330" y="390" font-size="14">ORD1821</text><text x="500" y="390" font-size="14">EMP1002</text><text x="650" y="390" font-size="14">Priya Sharma</text><text x="860" y="390" font-size="14">Lunch</text><text x="1010" y="390" font-size="14">22 May</text><text x="1160" y="390" font-size="14">Rs 80</text><line x1="330" y1="414" x2="1260" y2="414" stroke="#E5E7EB"/><text x="330" y="452" font-size="14">ORD1839</text><text x="500" y="452" font-size="14">EMP1005</text><text x="650" y="452" font-size="14">Amit Patel</text><text x="860" y="452" font-size="14">Breakfast</text><text x="1010" y="452" font-size="14">22 May</text><text x="1160" y="452" font-size="14">Rs 50</text><line x1="330" y1="476" x2="1260" y2="476" stroke="#E5E7EB"/><text x="330" y="514" font-size="14">ORD1848</text><text x="500" y="514" font-size="14">EMP1003</text><text x="650" y="514" font-size="14">Rohan Verma</text><text x="860" y="514" font-size="14">Dinner</text><text x="1010" y="514" font-size="14">21 May</text><text x="1160" y="514" font-size="14">Rs 90</text><line x1="330" y1="538" x2="1260" y2="538" stroke="#E5E7EB"/><text x="330" y="576" font-size="14">ORD1855</text><text x="500" y="576" font-size="14">EMP1006</text><text x="650" y="576" font-size="14">Anjali Mehta</text><text x="860" y="576" font-size="14">Lunch</text><text x="1010" y="576" font-size="14">21 May</text><text x="1160" y="576" font-size="14">Rs 80</text><line x1="330" y1="600" x2="1260" y2="600" stroke="#E5E7EB"/><text x="330" y="710" font-size="18" font-weight="700">Total No-show Orders: 48</text><text x="970" y="710" font-size="18" font-weight="700">Total Amount: Rs 3,580</text>
</svg>