<svg xmlns="http://www.w3.org/2000/svg" width="1440" height="900" viewBox="0 0 1440 900">
<style>text{font-family:Arial,Helvetica,sans-serif}</style>
<rect width="1440" height="900" fill="#F8F9FB"/>
<rect x="0" y="0" width="250" height="900" fill="#111827"/>
<rect x="32" y="34" width="42" height="34" rx="6" fill="#F5A623"/><text x="88" y="58" font-size="20" font-weight="700" fill="#F5A623">CANTEEN HUB</text>
<text x="88" y="82" font-size="13" fill="white">HR PORTAL</text>
<rect x="20" y="125" width="210" height="42" rx="8" fill="transparent"/><text x="48" y="150" font-size="15" fill="white">Dashboard</text><rect x="20" y="179" width="210" height="42" rx="8" fill="transparent"/><text x="48" y="204" font-size="15" fill="white">Staff Management</text><rect x="20" y="233" width="210" height="42" rx="8" fill="transparent"/><text x="48" y="258" font-size="15" fill="white">Credit Allocation</text><rect x="20" y="287" width="210" height="42" rx="8" fill="transparent"/><text x="48" y="312" font-size="15" fill="white">Policies</text><rect x="20" y="341" width="210" height="42" rx="8" fill="transparent"/><text x="48" y="366" font-size="15" fill="white">Approvals</text><rect x="20" y="395" width="210" height="42" rx="8" fill="transparent"/><text x="48" y="420" font-size="15" fill="white">Reports</text><rect x="20" y="449" width="210" height="42" rx="8" fill="#2A3342"/><text x="48" y="474" font-size="15" fill="#F5A623">Audit Logs</text><rect x="20" y="503" width="210" height="42" rx="8" fill="transparent"/><text x="48" y="528" font-size="15" fill="white">Settings</text><rect x="20" y="557" width="210" height="42" rx="8" fill="transparent"/><text x="48" y="582" font-size="15" fill="white">Logout</text>
<rect x="250" y="0" width="1190" height="76" fill="white"/>
<text x="290" y="48" font-size="24" font-weight="700" fill="#111827">Audit Logs</text>
<text x="1260" y="48" font-size="14" fill="#111827">🔔   HR Admin ▾</text>
<line x1="250" y1="76" x2="1440" y2="76" stroke="#E5E7EB"/><text x="290" y="112" font-size="15" fill="#6B7280">Track all system activities</text>
<rect x="290" y="150" width="1070" height="600" rx="16" fill="white" stroke="#E5E7EB"/>
<text x="330" y="210" font-size="14">All Actions ▾</text><text x="520" y="210" font-size="14">All Users ▾</text><text x="830" y="210" font-size="14">01 May - 22 May 2024 ▾</text>
<text x="330" y="285" font-size="14" font-weight="700">Date & Time</text><text x="560" y="285" font-size="14" font-weight="700">User</text><text x="720" y="285" font-size="14" font-weight="700">Action</text><text x="920" y="285" font-size="14" font-weight="700">Module</text><text x="1080" y="285" font-size="14" font-weight="700">Details</text>
<text x="330" y="345" font-size="14">22 May 10:15</text><text x="560" y="345" font-size="14">HR Admin</text><text x="720" y="345" font-size="14">Credit Allocated</text><text x="920" y="345" font-size="14">Credits</text><text x="1080" y="345" font-size="14">Rs 3000 to EMP1002</text><line x1="330" y1="369" x2="1280" y2="369" stroke="#E5E7EB"/><text x="330" y="407" font-size="14">22 May 10:10</text><text x="560" y="407" font-size="14">HR Admin</text><text x="720" y="407" font-size="14">Policy Updated</text><text x="920" y="407" font-size="14">Policy</text><text x="1080" y="407" font-size="14">Meal limit updated</text><line x1="330" y1="431" x2="1280" y2="431" stroke="#E5E7EB"/><text x="330" y="469" font-size="14">22 May 09:55</text><text x="560" y="469" font-size="14">HR Admin</text><text x="720" y="469" font-size="14">Staff Added</text><text x="920" y="469" font-size="14">Staff</text><text x="1080" y="469" font-size="14">EMP1012 added</text><line x1="330" y1="493" x2="1280" y2="493" stroke="#E5E7EB"/><text x="330" y="531" font-size="14">22 May 09:40</text><text x="560" y="531" font-size="14">HR Admin</text><text x="720" y="531" font-size="14">Report Downloaded</text><text x="920" y="531" font-size="14">Reports</text><text x="1080" y="531" font-size="14">Credit Usage Report</text><line x1="330" y1="555" x2="1280" y2="555" stroke="#E5E7EB"/><text x="330" y="593" font-size="14">22 May 09:30</text><text x="560" y="593" font-size="14">HR Admin</text><text x="720" y="593" font-size="14">Login</text><text x="920" y="593" font-size="14">Auth</text><text x="1080" y="593" font-size="14">Logged in</text><line x1="330" y1="617" x2="1280" y2="617" stroke="#E5E7EB"/>
</svg>