<svg xmlns="http://www.w3.org/2000/svg" width="1440" height="900" viewBox="0 0 1440 900">
<style>text{font-family:Arial,Helvetica,sans-serif}</style>
<rect width="1440" height="900" fill="#F8F9FB"/>
<rect x="0" y="0" width="250" height="900" fill="#111827"/>
<rect x="32" y="34" width="42" height="34" rx="6" fill="#F5A623"/><text x="88" y="58" font-size="20" font-weight="700" fill="#F5A623">CANTEEN HUB</text>
<text x="88" y="82" font-size="13" fill="white">HR PORTAL</text>
<rect x="20" y="125" width="210" height="42" rx="8" fill="transparent"/><text x="48" y="150" font-size="15" fill="white">Dashboard</text><rect x="20" y="179" width="210" height="42" rx="8" fill="transparent"/><text x="48" y="204" font-size="15" fill="white">Staff Management</text><rect x="20" y="233" width="210" height="42" rx="8" fill="transparent"/><text x="48" y="258" font-size="15" fill="white">Credit Allocation</text><rect x="20" y="287" width="210" height="42" rx="8" fill="transparent"/><text x="48" y="312" font-size="15" fill="white">Policies</text><rect x="20" y="341" width="210" height="42" rx="8" fill="transparent"/><text x="48" y="366" font-size="15" fill="white">Approvals</text><rect x="20" y="395" width="210" height="42" rx="8" fill="transparent"/><text x="48" y="420" font-size="15" fill="white">Reports</text><rect x="20" y="449" width="210" height="42" rx="8" fill="transparent"/><text x="48" y="474" font-size="15" fill="white">Audit Logs</text><rect x="20" y="503" width="210" height="42" rx="8" fill="#2A3342"/><text x="48" y="528" font-size="15" fill="#F5A623">Settings</text><rect x="20" y="557" width="210" height="42" rx="8" fill="transparent"/><text x="48" y="582" font-size="15" fill="white">Logout</text>
<rect x="250" y="0" width="1190" height="76" fill="white"/>
<text x="290" y="48" font-size="24" font-weight="700" fill="#111827">Profile & Settings</text>
<text x="1260" y="48" font-size="14" fill="#111827">🔔   HR Admin ▾</text>
<line x1="250" y1="76" x2="1440" y2="76" stroke="#E5E7EB"/><text x="290" y="112" font-size="15" fill="#6B7280">Manage profile settings</text>
<rect x="380" y="150" width="850" height="620" rx="16" fill="white" stroke="#E5E7EB"/>
<circle cx="805" cy="230" r="58" fill="#E5E7EB"/><text x="805" y="250" font-size="48" text-anchor="middle">👤</text>
<text x="805" y="320" font-size="24" font-weight="700" text-anchor="middle">HR Admin</text><text x="805" y="348" font-size="14" text-anchor="middle" fill="#6B7280">hr.admin@example.com</text>
<text x="460" y="420" font-size="14">Full Name</text><rect x="460" y="438" width="690" height="48" rx="8" fill="white" stroke="#E5E7EB"/><text x="480" y="468" font-size="14" fill="#6B7280">HR Admin</text>
<text x="460" y="520" font-size="14">Email</text><rect x="460" y="538" width="690" height="48" rx="8" fill="white" stroke="#E5E7EB"/><text x="480" y="568" font-size="14" fill="#6B7280">hr.admin@example.com</text>
<text x="460" y="620" font-size="14">Phone</text><rect x="460" y="638" width="690" height="48" rx="8" fill="white" stroke="#E5E7EB"/><text x="480" y="668" font-size="14" fill="#6B7280">+91 98765 43210</text>
<rect x="460" y="725" width="690" height="52" rx="8" fill="#F5A623" stroke="#E5E7EB"/><text x="805.0" y="757.0" font-size="14" font-weight="700" text-anchor="middle" fill="white">Update Profile</text>

</svg>