<svg xmlns="http://www.w3.org/2000/svg" width="1440" height="900" viewBox="0 0 1440 900">
<style>text{font-family:Arial,Helvetica,sans-serif}</style>

    <rect width="1440" height="900" fill="#F8F9FB"/>
    <rect x="0" y="0" width="250" height="900" fill="#111827"/>
    <rect x="32" y="34" width="42" height="34" rx="6" fill="#F5A623"/>
    <text x="88" y="58" font-size="20" font-weight="700" fill="#F5A623">CANTEEN HUB</text>
    <text x="88" y="82" font-size="13" fill="white">CANTEEN PORTAL</text>
    
        <rect x="20" y="120" width="210" height="42" rx="8" fill="#2A3342"/>
        <text x="48" y="145" font-size="15" fill="#F5A623">Dashboard</text>
        
        <rect x="20" y="170" width="210" height="42" rx="8" fill="transparent"/>
        <text x="48" y="195" font-size="15" fill="white">Menu Management</text>
        
        <rect x="20" y="220" width="210" height="42" rx="8" fill="transparent"/>
        <text x="48" y="245" font-size="15" fill="white">Add Food Item</text>
        
        <rect x="20" y="270" width="210" height="42" rx="8" fill="transparent"/>
        <text x="48" y="295" font-size="15" fill="white">Orders Queue</text>
        
        <rect x="20" y="320" width="210" height="42" rx="8" fill="transparent"/>
        <text x="48" y="345" font-size="15" fill="white">Order Processing</text>
        
        <rect x="20" y="370" width="210" height="42" rx="8" fill="transparent"/>
        <text x="48" y="395" font-size="15" fill="white">Pickup Verification</text>
        
        <rect x="20" y="420" width="210" height="42" rx="8" fill="transparent"/>
        <text x="48" y="445" font-size="15" fill="white">Billing</text>
        
        <rect x="20" y="470" width="210" height="42" rx="8" fill="transparent"/>
        <text x="48" y="495" font-size="15" fill="white">Inventory</text>
        
        <rect x="20" y="520" width="210" height="42" rx="8" fill="transparent"/>
        <text x="48" y="545" font-size="15" fill="white">Reports</text>
        
        <rect x="20" y="570" width="210" height="42" rx="8" fill="transparent"/>
        <text x="48" y="595" font-size="15" fill="white">Settings</text>
        
        <rect x="20" y="620" width="210" height="42" rx="8" fill="transparent"/>
        <text x="48" y="645" font-size="15" fill="white">Logout</text>
        

    <rect x="250" y="0" width="1190" height="76" fill="white"/>
    <text x="290" y="48" font-size="24" font-weight="700" fill="#111827">Dashboard</text>
    <text x="1240" y="48" font-size="14" fill="#111827">🔔  Admin ▾</text>
    <line x1="250" y1="76" x2="1440" y2="76" stroke="#E5E7EB"/>
    
<rect x="290" y="140" width="240" height="120" rx="16" fill="white" stroke="#E5E7EB"/>
<text x="320" y="180" font-size="14" fill="#6B7280">Today's Orders</text>
<text x="320" y="225" font-size="34" font-weight="700">128</text>

<rect x="550" y="140" width="240" height="120" rx="16" fill="white" stroke="#E5E7EB"/>
<text x="580" y="180" font-size="14" fill="#6B7280">Pending Orders</text>
<text x="580" y="225" font-size="34" font-weight="700">34</text>

<rect x="810" y="140" width="240" height="120" rx="16" fill="white" stroke="#E5E7EB"/>
<text x="840" y="180" font-size="14" fill="#6B7280">Revenue</text>
<text x="840" y="225" font-size="34" font-weight="700">Rs 28,450</text>

<rect x="1070" y="140" width="240" height="120" rx="16" fill="white" stroke="#E5E7EB"/>
<text x="1100" y="180" font-size="14" fill="#6B7280">No-show</text>
<text x="1100" y="225" font-size="34" font-weight="700">8</text>

<rect x="290" y="300" width="610" height="360" rx="16" fill="white" stroke="#E5E7EB"/>
<text x="325" y="340" font-size="20" font-weight="700">Orders Trend</text>
<polyline points="340,590 430,520 520,540 610,450 700,430 790,380" fill="none" stroke="#F5A623" stroke-width="4"/>

<rect x="930" y="300" width="380" height="360" rx="16" fill="white" stroke="#E5E7EB"/>
<text x="965" y="340" font-size="20" font-weight="700">Popular Items</text>

<rect x="980" y="390" width="250" height="20" rx="8" fill="#F5A623"/>
<text x="980" y="430" font-size="14">Veg Thali</text>

<rect x="980" y="480" width="190" height="20" rx="8" fill="#FBBF24"/>
<text x="980" y="520" font-size="14">Paneer Rice</text>

<rect x="980" y="570" width="150" height="20" rx="8" fill="#FCD34D"/>
<text x="980" y="610" font-size="14">Buttermilk</text>

</svg>