<svg xmlns="http://www.w3.org/2000/svg" width="1440" height="900" viewBox="0 0 1440 900">
<style>text{font-family:Arial,Helvetica,sans-serif}</style>

    <rect width="1440" height="900" fill="#F8F9FB"/>
    <rect x="0" y="0" width="250" height="900" fill="#111827"/>
    <rect x="32" y="34" width="42" height="34" rx="6" fill="#F5A623"/>
    <text x="88" y="58" font-size="20" font-weight="700" fill="#F5A623">CANTEEN HUB</text>
    <text x="88" y="82" font-size="13" fill="white">CANTEEN PORTAL</text>
    
        <rect x="20" y="120" width="210" height="42" rx="8" fill="transparent"/>
        <text x="48" y="145" font-size="15" fill="white">Dashboard</text>
        
        <rect x="20" y="170" width="210" height="42" rx="8" fill="#2A3342"/>
        <text x="48" y="195" font-size="15" fill="#F5A623">Menu Management</text>
        
        <rect x="20" y="220" width="210" height="42" rx="8" fill="transparent"/>
        <text x="48" y="245" font-size="15" fill="white">Add Food Item</text>
        
        <rect x="20" y="270" width="210" height="42" rx="8" fill="transparent"/>
        <text x="48" y="295" font-size="15" fill="white">Orders Queue</text>
        
        <rect x="20" y="320" width="210" height="42" rx="8" fill="transparent"/>
        <text x="48" y="345" font-size="15" fill="white">Order Processing</text>
        
        <rect x="20" y="370" width="210" height="42" rx="8" fill="transparent"/>
        <text x="48" y="395" font-size="15" fill="white">Pickup Verification</text>
        
        <rect x="20" y="420" width="210" height="42" rx="8" fill="transparent"/>
        <text x="48" y="445" font-size="15" fill="white">Billing</text>
        
        <rect x="20" y="470" width="210" height="42" rx="8" fill="transparent"/>
        <text x="48" y="495" font-size="15" fill="white">Inventory</text>
        
        <rect x="20" y="520" width="210" height="42" rx="8" fill="transparent"/>
        <text x="48" y="545" font-size="15" fill="white">Reports</text>
        
        <rect x="20" y="570" width="210" height="42" rx="8" fill="transparent"/>
        <text x="48" y="595" font-size="15" fill="white">Settings</text>
        
        <rect x="20" y="620" width="210" height="42" rx="8" fill="transparent"/>
        <text x="48" y="645" font-size="15" fill="white">Logout</text>
        

    <rect x="250" y="0" width="1190" height="76" fill="white"/>
    <text x="290" y="48" font-size="24" font-weight="700" fill="#111827">Menu Management</text>
    <text x="1240" y="48" font-size="14" fill="#111827">🔔  Admin ▾</text>
    <line x1="250" y1="76" x2="1440" y2="76" stroke="#E5E7EB"/>
    

    <rect x="1200" y="100" width="140" height="40" rx="8" fill="#F5A623" stroke="#E5E7EB"/>
    <text x="1270.0" y="126.0" font-size="14" font-weight="700" text-anchor="middle" fill="white">+ Add Item</text>
    

<rect x="290" y="150" width="1070" height="620" rx="16" fill="white" stroke="#E5E7EB"/>

<text x="330" y="210" font-size="16" font-weight="700">Food Items</text>

<text x="330" y="270" font-size="14" font-weight="700">Item Name</text>
<text x="650" y="270" font-size="14" font-weight="700">Category</text>
<text x="840" y="270" font-size="14" font-weight="700">Price</text>
<text x="980" y="270" font-size="14" font-weight="700">Status</text>
<text x="1140" y="270" font-size="14" font-weight="700">Actions</text>

    <text x="330" y="330" font-size="14">Veg Thali</text>
    <text x="650" y="330" font-size="14">Lunch</text>
    <text x="840" y="330" font-size="14">Rs 80</text>
    <text x="980" y="330" font-size="14" fill="#22C55E">Active</text>
    <text x="1140" y="330" font-size="14" fill="#F5A623">Edit</text>
    <line x1="330" y1="354" x2="1280" y2="354" stroke="#E5E7EB"/>
    
    <text x="330" y="400" font-size="14">Paneer Butter Masala</text>
    <text x="650" y="400" font-size="14">Lunch</text>
    <text x="840" y="400" font-size="14">Rs 90</text>
    <text x="980" y="400" font-size="14" fill="#22C55E">Active</text>
    <text x="1140" y="400" font-size="14" fill="#F5A623">Edit</text>
    <line x1="330" y1="424" x2="1280" y2="424" stroke="#E5E7EB"/>
    
    <text x="330" y="470" font-size="14">Jeera Rice</text>
    <text x="650" y="470" font-size="14">Rice</text>
    <text x="840" y="470" font-size="14">Rs 40</text>
    <text x="980" y="470" font-size="14" fill="#EF4444">Inactive</text>
    <text x="1140" y="470" font-size="14" fill="#F5A623">Edit</text>
    <line x1="330" y1="494" x2="1280" y2="494" stroke="#E5E7EB"/>
    
    <text x="330" y="540" font-size="14">Masala Buttermilk</text>
    <text x="650" y="540" font-size="14">Drinks</text>
    <text x="840" y="540" font-size="14">Rs 20</text>
    <text x="980" y="540" font-size="14" fill="#22C55E">Active</text>
    <text x="1140" y="540" font-size="14" fill="#F5A623">Edit</text>
    <line x1="330" y1="564" x2="1280" y2="564" stroke="#E5E7EB"/>
    
</svg>